<svg xmlns="http://www.w3.org/2000/svg" width="48" height="43.999" viewBox="0 0 48 43.999"><path d="M782.043,3520.749a1.243,1.243,0,0,1-1.234,1.251H737.234a1.251,1.251,0,0,1,0-2.5h43.575A1.242,1.242,0,0,1,782.043,3520.749Zm-24.274-20.536a1.222,1.222,0,0,0,1.744-.061,1.264,1.264,0,0,0-.06-1.768c-2.115-2-1.663-6.07.155-8.369,2.467-3.12,3.01-8.684-.155-11.677a1.223,1.223,0,0,0-1.744.062,1.263,1.263,0,0,0,.061,1.768c1.9,1.8,1.858,5.823-.087,8.283a10.169,10.169,0,0,0-2.1,5.946A7.581,7.581,0,0,0,757.769,3500.213Zm26.231-2.6v2.4a6.2,6.2,0,0,1-6.154,6.239h-2.755a13.513,13.513,0,0,1-12.686,9.051h-6.766a13.585,13.585,0,0,1-13.476-13.662v-12.41a1.243,1.243,0,0,1,1.234-1.251h7.915c1.607-2.476,1.535-6.127-.249-7.815a1.263,1.263,0,0,1-.06-1.768,1.222,1.222,0,0,1,1.744-.061c3.164,2.993,2.622,8.557.155,11.677-1.819,2.3-2.271,6.368-.155,8.369a1.264,1.264,0,0,1,.061,1.768,1.223,1.223,0,0,1-1.744.061,7.583,7.583,0,0,1-2.184-5.817,10.408,10.408,0,0,1,.881-3.913h-5.13v11.159a11.1,11.1,0,0,0,11.008,11.16h6.766a11.1,11.1,0,0,0,11.008-11.16v-11.159h-9.278a1.251,1.251,0,0,1,0-2.5h10.512a1.243,1.243,0,0,1,1.234,1.251v2.143h1.965A6.2,6.2,0,0,1,784,3497.614Zm-2.468,0a3.716,3.716,0,0,0-3.686-3.737h-1.965v9.874h1.965a3.716,3.716,0,0,0,3.686-3.737Z" transform="translate(-736 -3478)" fill="#c7b299"/></svg>