<svg xmlns="http://www.w3.org/2000/svg" width="25.16" height="24.46" viewBox="0 0 25.16 24.46"><path d="M997.13,2665.171l-4.335-4.271a10.972,10.972,0,1,1,4.346-8.7,10.833,10.833,0,0,1-2.068,6.361l4.384,4.318a1.6,1.6,0,0,1,0,2.29,1.663,1.663,0,0,1-2.326,0ZM977.409,2652.2a8.5,8.5,0,0,0,8.551,8.425,8.555,8.555,0,0,0,6.764-3.292,8.287,8.287,0,0,0,1.786-5.134,8.551,8.551,0,0,0-17.1,0Zm11.642-2.219a4.148,4.148,0,0,0-3.748-2.31,1.3,1.3,0,1,1,0-2.592,6.766,6.766,0,0,1,6.113,3.766,1.289,1.289,0,0,1-.607,1.734,1.347,1.347,0,0,1-.575.13A1.315,1.315,0,0,1,989.051,2649.983Z" transform="translate(-974.777 -2641.185)" fill="#fff"/></svg>