<?xml version="1.0" encoding="UTF-8"?><!DOCTYPE svg PUBLIC "-//W3C//DTD SVG 1.1//EN" "http://www.w3.org/Graphics/SVG/1.1/DTD/svg11.dtd"><svg xmlns="http://www.w3.org/2000/svg"><symbol id="icon-arrow-left" viewBox="0 0 40 73">
    <style>
        .st0{fill:#fff;enable-background:new}
    </style>
    <path class="st0" d="M38 73L0 36.5 38 0l2 2L4.1 36.5 40 71l-2 2z"/>
</symbol><symbol id="icon-arrow-right" viewBox="0 0 39.99 72.961">
    <path d="M1.969 72.961l38.026-36.479L1.974.002l-1.969 2 35.929 34.476L-.005 70.959z" opacity=".5"/>
</symbol><symbol id="icon-arrow" viewBox="0 0 30.019 10.001">
    <path d="M15.009.003l15.009 10H0z"/>
</symbol><symbol id="icon-coffee" viewBox="0 0 48 43.999">
    <path d="M46.043 42.749A1.243 1.243 0 0 1 44.809 44H1.234a1.251 1.251 0 0 1 0-2.5h43.575a1.242 1.242 0 0 1 1.234 1.249zM21.769 22.213a1.222 1.222 0 0 0 1.744-.061 1.264 1.264 0 0 0-.06-1.768c-2.115-2-1.663-6.07.155-8.369 2.467-3.12 3.01-8.684-.155-11.677A1.223 1.223 0 0 0 21.709.4a1.263 1.263 0 0 0 .061 1.768c1.9 1.8 1.858 5.823-.087 8.283a10.169 10.169 0 0 0-2.1 5.946 7.581 7.581 0 0 0 2.186 5.816zM48 19.613v2.4a6.2 6.2 0 0 1-6.154 6.239h-2.755a13.513 13.513 0 0 1-12.686 9.051h-6.766A13.585 13.585 0 0 1 6.163 23.641v-12.41A1.243 1.243 0 0 1 7.397 9.98h7.915c1.607-2.476 1.535-6.127-.249-7.815a1.263 1.263 0 0 1-.06-1.768 1.222 1.222 0 0 1 1.744-.061c3.164 2.993 2.622 8.557.155 11.677-1.819 2.3-2.271 6.368-.155 8.369a1.264 1.264 0 0 1 .061 1.768 1.223 1.223 0 0 1-1.744.061 7.583 7.583 0 0 1-2.184-5.817 10.408 10.408 0 0 1 .881-3.913h-5.13V23.64A11.1 11.1 0 0 0 19.639 34.8h6.766a11.1 11.1 0 0 0 11.008-11.16V12.481h-9.278a1.251 1.251 0 0 1 0-2.5h10.512a1.243 1.243 0 0 1 1.234 1.251v2.143h1.965A6.2 6.2 0 0 1 48 19.614zm-2.468 0a3.716 3.716 0 0 0-3.686-3.737h-1.965v9.874h1.965a3.716 3.716 0 0 0 3.686-3.737z"/>
</symbol><symbol id="icon-customization" viewBox="0 0 43.567 43.567">
    <path d="M43.567 21.783a4.317 4.317 0 0 0-2.605-3.857 4.634 4.634 0 0 1-2.885-6.976 4.162 4.162 0 0 0-5.46-5.459 4.627 4.627 0 0 1-6.972-2.884 4.164 4.164 0 0 0-7.723 0 4.627 4.627 0 0 1-6.972 2.884 4.161 4.161 0 0 0-5.459 5.459 4.637 4.637 0 0 1-2.885 6.976 4.16 4.16 0 0 0 0 7.718 4.632 4.632 0 0 1 2.885 6.973 4.162 4.162 0 0 0 5.459 5.459 4.63 4.63 0 0 1 6.972 2.89 4.167 4.167 0 0 0 7.723 0 4.626 4.626 0 0 1 6.972-2.89 4.163 4.163 0 0 0 5.46-5.459 4.628 4.628 0 0 1 2.885-6.973 4.327 4.327 0 0 0 2.605-3.861zm-21.783 7.992a7.988 7.988 0 1 1 7.984-7.983 7.984 7.984 0 0 1-7.984 7.983z"/>
</symbol><symbol id="icon-development" viewBox="0 0 42.874 39.177">
    <path d="M0 27.614l3.985-2.147 17.452 9.411 17.452-9.411 3.985 2.147-21.437 11.562zm0-8.024l3.985-2.149 17.452 9.41 17.452-9.41 3.985 2.149-21.437 11.557zm0-8.031L21.437-.001l21.437 11.56L21.437 23.12z"/>
</symbol><symbol id="icon-facebook" viewBox="0 0 10 19">
    <title>
        facebook
    </title>
    <path d="M9.766.157v2.946H8.014c-.64 0-1.071.134-1.295.402-.223.268-.335.67-.335 1.205v2.11h3.27l-.435 3.303H6.384v8.471H2.97v-8.47H.123V6.82H2.97V4.387c0-1.384.387-2.457 1.161-3.22C4.904.404 5.934.023 7.222.023c1.093 0 1.941.045 2.544.134z" fill-rule="evenodd"/>
</symbol><symbol id="icon-launch" viewBox="0 0 53.995 43.992">
    <path d="M52.307 40.608H1.688a1.692 1.692 0 0 0 0 3.384h50.619a1.692 1.692 0 0 0 0-3.384zM28.684 6.768V3.384h3.375a1.692 1.692 0 0 0 0-3.384H21.935a1.692 1.692 0 0 0 0 3.384h3.375s-.012 3.523 0 3.384A27.1 27.1 0 0 0 0 33.84v1.692a1.69 1.69 0 0 0 1.688 1.692h50.619a1.691 1.691 0 0 0 1.688-1.692V33.84a27.1 27.1 0 0 0-25.31-27.072zM3.375 33.84a23.623 23.623 0 1 1 47.245 0z"/>
</symbol><symbol id="icon-like" viewBox="0 0 44 44">
    <path d="M30.25 0c-.424 0-.847.026-1.268.064-.154.014-.306.036-.459.057-.258.031-.513.07-.768.117q-.282.052-.552.114c-.211.048-.42.1-.63.162s-.4.109-.591.172c-.177.058-.349.128-.524.193a14.074 14.074 0 0 0-1.343.583c-.086.042-.176.081-.26.127-.228.121-.449.255-.671.388-.121.074-.244.144-.365.222-.215.137-.422.285-.628.433-.062.046-.128.087-.192.133a13.735 13.735 0 0 0-22 10.985c0 12.445 8 23.7 21.406 30.113a1.36 1.36 0 0 0 1.188 0c13.4-6.411 21.406-17.668 21.406-30.113A13.765 13.765 0 0 0 30.25 0zM22 41.1C9.935 35.111 2.75 24.93 2.75 13.753a10.971 10.971 0 0 1 17.19-9.067 13.671 13.671 0 0 0-3.44 9.067 1.375 1.375 0 0 0 2.75 0 10.963 10.963 0 0 1 3.724-8.227c.211-.189.431-.366.654-.536.051-.036.1-.075.152-.113a10.855 10.855 0 0 1 .864-.571 10.382 10.382 0 0 1 .92-.49c.22-.1.443-.2.67-.292.1-.04.2-.076.3-.113.214-.077.428-.15.646-.213.133-.037.262-.07.395-.1.2-.049.392-.1.594-.14.181-.033.365-.058.548-.084.156-.024.311-.05.47-.066.349-.033.7-.053 1.061-.053a11.012 11.012 0 0 1 11 11C41.25 24.927 34.066 35.108 22 41.1zm8.25-35.6a1.375 1.375 0 1 0 0 2.75 5.506 5.506 0 0 1 5.5 5.5 1.375 1.375 0 0 0 2.75 0 8.259 8.259 0 0 0-8.25-8.25z"/>
</symbol><symbol id="icon-link" viewBox="0 0 24.632 24.635">
    <path d="M1.802 22.831a6.208 6.208 0 0 1 0-8.747l5.114-5.117a2.887 2.887 0 0 1 .239-.222 6.189 6.189 0 0 1 6.425-1.141 6 6 0 0 1 2.08 1.364l-2.642 2.642a2.445 2.445 0 0 0-3.46 0l-5.113 5.115a2.447 2.447 0 0 0 3.46 3.462l2.352-2.354a6.147 6.147 0 0 0 4.909.324l-4.619 4.673a6.2 6.2 0 0 1-8.743 0zm9.239-5.8a6.031 6.031 0 0 1-2.08-1.365l2.642-2.643a2.445 2.445 0 0 0 3.46 0l2.028-2.029 3.085-3.087a2.447 2.447 0 1 0-3.46-3.462l-2.454 2.456a7.059 7.059 0 0 0-4.909-.375l4.72-4.724a6.184 6.184 0 0 1 8.744 8.748l-1.926 1.928-3.187 3.189a4.23 4.23 0 0 1-.511.461 6.24 6.24 0 0 1-6.152.9z"/>
</symbol><symbol id="icon-lupa" viewBox="0 0 25.16 24.46">
    <path d="M22.353 23.986l-4.335-4.271a10.972 10.972 0 1 1 4.346-8.7 10.833 10.833 0 0 1-2.068 6.361l4.384 4.318a1.6 1.6 0 0 1 0 2.29 1.663 1.663 0 0 1-2.326 0zM2.632 11.015a8.5 8.5 0 0 0 8.551 8.425 8.555 8.555 0 0 0 6.764-3.292 8.287 8.287 0 0 0 1.786-5.134 8.551 8.551 0 0 0-17.1 0zm11.642-2.219a4.148 4.148 0 0 0-3.748-2.31 1.3 1.3 0 1 1 0-2.592 6.766 6.766 0 0 1 6.113 3.766 1.289 1.289 0 0 1-.607 1.734 1.347 1.347 0 0 1-.575.13 1.315 1.315 0 0 1-1.183-.726z"/>
</symbol><symbol id="icon-marketing" viewBox="0 0 50.901 35.649">
    <path d="M2.342 35.649a1.419 1.419 0 0 1-1.37-2.221l9.492-19.422a4.32 4.32 0 0 1 3.539-2.226h35.3a1.421 1.421 0 0 1 1.372 2.226l-9.49 19.422a4.328 4.328 0 0 1-3.542 2.221zM0 7.649a2.474 2.474 0 0 1 2.457-2.48h10.817V3.724a3.7 3.7 0 0 1 1.081-2.627 3.639 3.639 0 0 1 2.606-1.1h6.291a3.707 3.707 0 0 1 3.684 3.722v1.444h10.816a2.479 2.479 0 0 1 2.458 2.482v1.653H14.003a6.8 6.8 0 0 0-5.742 3.609L0 29.807zm16.094-4.8a1.251 1.251 0 0 0-.363.875v1.445h8.748V3.724a1.235 1.235 0 0 0-1.229-1.242h-6.29a1.2 1.2 0 0 0-.866.365z"/>
</symbol><symbol id="icon-pencil" viewBox="0 0 47.6 47.603">
    <path d="M14.476 14.73L28.744.466a1.59 1.59 0 0 1 2.248 2.248L17.148 16.561 8.572 36.026l3 3 19.468-8.572 13.846-13.845a1.59 1.59 0 1 1 2.249 2.247l-14.27 14.268L-.002 47.602zM26.96 27.605a1.594 1.594 0 0 1 0-2.249l13.332-13.332a1.591 1.591 0 0 1 2.25 2.249L29.21 27.605a1.593 1.593 0 0 1-2.25 0zm-3.479-3.48a1.591 1.591 0 0 1 0-2.251L36.814 8.542a1.591 1.591 0 0 1 2.25 2.25L25.731 24.125a1.594 1.594 0 0 1-2.249 0zM20 20.642a1.59 1.59 0 0 1 0-2.249L33.333 5.062a1.591 1.591 0 0 1 2.25 2.25L22.25 20.642a1.593 1.593 0 0 1-2.25 0z"/>
</symbol><symbol id="icon-post" viewBox="0 0 43.992 43.992">
    <path d="M28.87 23.371H15.122a1.375 1.375 0 0 0 0 2.75h13.747a1.375 1.375 0 0 0 0-2.75zm2.749-8.248H12.373a1.375 1.375 0 1 0 0 2.749h19.246a1.375 1.375 0 1 0 0-2.749zM21.997-.003c-12.147 0-22 8.616-22 19.246a18.424 18.424 0 0 0 8.248 15.011v9.743l9.636-5.847a25.259 25.259 0 0 0 4.112.348c12.149 0 22-8.617 22-19.247S34.145-.003 21.997-.003zm0 35.743a22.242 22.242 0 0 1-4.647-.5l-6.473 3.89.087-6.376C6.002 29.77 2.75 24.837 2.75 19.247c0-9.11 8.617-16.5 19.247-16.5s19.247 7.387 19.247 16.5-8.618 16.497-19.247 16.497z"/>
</symbol><symbol id="icon-small-arrow" viewBox="0 0 20.997 20.997">
    <path d="M10.499 0a10.5 10.5 0 1 0 10.5 10.5A10.5 10.5 0 0 0 10.499 0zm3.289 11l-4.539 4.539a.7.7 0 0 1-.99-.99l4.047-4.046-4.047-4.047a.7.7 0 0 1 .99-.99l4.539 4.54a.7.7 0 0 1 0 .994z"/>
</symbol><symbol id="icon-users" viewBox="0 0 44 44">
    <path d="M19.937 30.25c5.688 0 10.313-5.629 10.313-12.547S25.626 5.156 19.938 5.156a9.445 9.445 0 0 0-7.395 3.788 14.011 14.011 0 0 0-2.918 8.759c0 6.919 4.625 12.547 10.312 12.547zm0-22.344c4.169 0 7.563 4.395 7.563 9.8s-3.393 9.8-7.562 9.8-7.562-4.394-7.565-9.8 3.392-9.8 7.564-9.8zm8.661 20.969a1.375 1.375 0 1 0 0 2.75 8.537 8.537 0 0 1 8.527 8.528 1.1 1.1 0 0 1-1.1 1.1H3.848a1.1 1.1 0 0 1-1.1-1.1 8.536 8.536 0 0 1 8.524-8.528 1.375 1.375 0 1 0 0-2.75A11.289 11.289 0 0 0 0 40.153 3.852 3.852 0 0 0 3.848 44h32.175a3.853 3.853 0 0 0 3.851-3.847A11.291 11.291 0 0 0 28.6 28.875zM20.942 3.629a6.048 6.048 0 0 1 3.12-.878c4.169 0 7.562 4.4 7.562 9.8a12.453 12.453 0 0 1-.319 2.828 1.373 1.373 0 0 0 1.023 1.652 1.3 1.3 0 0 0 .315.037 1.376 1.376 0 0 0 1.338-1.06 15.292 15.292 0 0 0 .393-3.457c0-6.918-4.625-12.547-10.312-12.547a8.881 8.881 0 0 0-4.518 1.261 1.375 1.375 0 0 0 1.4 2.368zM33 23.375a1.375 1.375 0 1 0 0 2.75 8.385 8.385 0 0 1 8.25 8.618 1.06 1.06 0 0 1-.094.448 1.376 1.376 0 0 0 .7 1.815 1.361 1.361 0 0 0 .559.118 1.378 1.378 0 0 0 1.257-.817 3.843 3.843 0 0 0 .33-1.568A11.136 11.136 0 0 0 33 23.375z"/>
</symbol></svg>